<svg width="15" height="15" viewBox="0 0 15 15" fill="none" xmlns="http://www.w3.org/2000/svg">
<g clip-path="url(#clip0_931_1811)">
<path d="M7.5 0C3.375 0 0 3.375 0 7.5C0 11.625 3.375 15 7.5 15C11.625 15 15 11.625 15 7.5C15 3.375 11.625 0 7.5 0ZM7.5 13.7498C4.06275 13.7498 1.25025 10.9373 1.25025 7.5C1.25025 4.06275 4.06275 1.25025 7.5 1.25025C10.9373 1.25025 13.7498 4.06275 13.7498 7.5C13.7498 10.9373 10.9373 13.7498 7.5 13.7498ZM7.5 6.24975C7.125 6.24975 6.87525 6.4995 6.87525 6.8745V11.2493C6.87525 11.6243 7.125 11.874 7.5 11.874C7.875 11.874 8.12475 11.6243 8.12475 11.2493V6.8745C8.12475 6.56175 7.875 6.24975 7.5 6.24975ZM7.5 5.0625C7.875 5.0625 8.18775 4.74975 8.18775 4.37475C8.18775 3.99975 7.875 3.687 7.5 3.687C7.125 3.687 6.81225 3.99975 6.81225 4.37475C6.81225 4.74975 7.125 5.0625 7.5 5.0625Z" fill="white"/>
</g>
<defs>
<clipPath id="clip0_931_1811">
<rect width="15" height="15" fill="white"/>
</clipPath>
</defs>
</svg>
